<svg xmlns="http://www.w3.org/2000/svg" xmlns:xlink="http://www.w3.org/1999/xlink" viewBox="0 0 50 50" fill="#5B5B5B">
  <path d="M29.167969 2L7 2L7 48L43 48L43 15.433594 Z M 32 25.367188C32 25.90625 31.53125 26.261719 30.96875 26.171875C28.4375 25.90625 29.375 24.652344 26 24.652344C26 24.652344 26 31.65625 26 33C26 34.339844 24.6875 37 21.125 37C17.28125 37 17 35.210938 17 34.046875C17 32.257813 18.21875 31.632813 21.125 31.632813C23.1875 31.632813 24 31.074219 24 30L24 21C24 20.464844 23.9375 20 24.5 20L25.4375 20C28.90625 20 28.34375 21.519531 31.15625 21.789063C31.625 21.789063 32 22.234375 32 22.683594 Z M 29 16L29 4L41 16Z" fill="#5B5B5B" />
</svg>