<svg xmlns="http://www.w3.org/2000/svg" xmlns:xlink="http://www.w3.org/1999/xlink" viewBox="0 0 26 26"><path d="M4 1C1.804688 1 0 2.800781 0 5L0 15C0 17.195313 1.804688 19 4 19L6.3125 19L8.0625 23.375C8.207031 23.765625 8.582031 24.027344 9 24.027344C9.417969 24.027344 9.792969 23.765625 9.9375 23.375L11.6875 19L22 19C24.195313 19 26 17.195313 26 15L26 5C26 2.800781 24.195313 1 22 1 Z M 4 3L22 3C23.117188 3 24 3.882813 24 5L24 15C24 16.113281 23.113281 17 22 17L11 17C10.589844 16.996094 10.214844 17.242188 10.0625 17.625L9 20.28125L7.9375 17.625C7.785156 17.242188 7.410156 16.996094 7 17L4 17C2.886719 17 2 16.113281 2 15L2 5C2 3.882813 2.882813 3 4 3Z"/></svg>