<svg xmlns="http://www.w3.org/2000/svg" xmlns:xlink="http://www.w3.org/1999/xlink" viewBox="0 0 50 50" fill="#5B5B5B">
  <path d="M45.273438 2.324219C45.085938 2.117188 44.816406 2 44.535156 2L5.464844 2C5.183594 2 4.914063 2.117188 4.726563 2.324219C4.535156 2.53125 4.441406 2.808594 4.46875 3.089844L7.988281 42.515625C8.023438 42.929688 8.3125 43.273438 8.710938 43.390625L24.722656 47.960938C24.808594 47.988281 24.902344 48 24.996094 48C25.089844 48 25.179688 47.988281 25.269531 47.960938L41.292969 43.390625C41.691406 43.273438 41.976563 42.929688 42.015625 42.515625L45.53125 3.089844C45.558594 2.808594 45.464844 2.53125 45.273438 2.324219 Z M 36.847656 15.917969L18.035156 15.917969L18.484375 21.007813L36.394531 21.007813L35.050781 36.050781L24.992188 39.089844L24.894531 39.058594L14.953125 36.046875L14.410156 29.917969L19.28125 29.917969L19.492188 32.296875L25.050781 33.460938L30.507813 32.296875L31.089844 25.859375L14.046875 25.859375L12.722656 11.054688L37.28125 11.054688Z" fill="#E34F26" />
</svg>