<svg xmlns="http://www.w3.org/2000/svg" xmlns:xlink="http://www.w3.org/1999/xlink" viewBox="0 0 26 26"><path d="M16.03125 2.0625C15.710938 2.066406 15.355469 2.207031 15.03125 2.53125L8.4375 9L5 9C4.449219 9 4 9.449219 4 10L4 16C4 16.550781 4.449219 17 5 17L8.4375 17L15 23.4375C16 24.4375 17 23.925781 17 22.5625L17 3.28125C17 2.488281 16.566406 2.058594 16.03125 2.0625 Z M 18.53125 9.09375C18.054688 9.171875 17.699219 9.582031 17.691406 10.066406C17.683594 10.550781 18.023438 10.96875 18.5 11.0625C19.355469 11.285156 20 12.0625 20 13C20 13.9375 19.355469 14.714844 18.5 14.9375C17.964844 15.074219 17.644531 15.621094 17.78125 16.15625C17.917969 16.691406 18.464844 17.011719 19 16.875C20.722656 16.425781 22 14.851563 22 13C22 11.148438 20.722656 9.574219 19 9.125C18.878906 9.089844 18.75 9.082031 18.625 9.09375C18.59375 9.09375 18.5625 9.09375 18.53125 9.09375Z"/></svg>