<?xml version="1.0" encoding="UTF-8" standalone="no"?>
<svg
   viewBox="0 0 50 50"
   fill="#5B5B5B"
   version="1.1"
   id="svg1"
   sodipodi:docname="photo.svg"
   inkscape:version="1.4.2 (f4327f4, 2025-05-13)"
   xmlns:inkscape="http://www.inkscape.org/namespaces/inkscape"
   xmlns:sodipodi="http://sodipodi.sourceforge.net/DTD/sodipodi-0.dtd"
   xmlns="http://www.w3.org/2000/svg"
   xmlns:svg="http://www.w3.org/2000/svg">
  <defs
     id="defs1" />
  <sodipodi:namedview
     id="namedview1"
     pagecolor="#ffffff"
     bordercolor="#000000"
     borderopacity="0.25"
     inkscape:showpageshadow="2"
     inkscape:pageopacity="0.0"
     inkscape:pagecheckerboard="0"
     inkscape:deskcolor="#d1d1d1"
     inkscape:zoom="11.836968"
     inkscape:cx="22.556452"
     inkscape:cy="24.626239"
     inkscape:window-width="1920"
     inkscape:window-height="1051"
     inkscape:window-x="-9"
     inkscape:window-y="-9"
     inkscape:window-maximized="1"
     inkscape:current-layer="svg1" />
  <path
     d="M 21.117187,25 13.632813,35.121094 H 28.503906 Z"
     style="fill:#1697e0;fill-opacity:1;stroke:none;stroke-width:0.2;stroke-dasharray:none;stroke-opacity:1"
     id="path16"
     sodipodi:nodetypes="cccc" />
  <path
     d="m 28.503906,35.121094 h 5.96875 l -5.96875,-8.097657 -2.9375,4.046875 z"
     style="fill:#27ace9;fill-opacity:1;stroke:none;stroke-width:0.2;stroke-miterlimit:2.5;stroke-dasharray:none;stroke-opacity:1"
     id="path15"
     sodipodi:nodetypes="ccccc" />
  <path
     d="m 33.527344,21.320312 c -1.046875,0 -1.894532,0.824219 -1.894532,1.839844 0,1.015625 0.847657,1.839844 1.894532,1.839844 1.042969,0 1.894531,-0.824219 1.894531,-1.839844 0,-1.015625 -0.851562,-1.839844 -1.894531,-1.839844 z"
     style="fill:#f9e65c;fill-opacity:1"
     id="path14" />
  <path
     d="M 7,2 V 48 H 43 V 15.433594 L 29.167969,2 Z M 29,4 41,16 H 29 Z m 4.527344,17.320312 c 1.042969,0 1.894531,0.824219 1.894531,1.839844 0,1.015625 -0.851562,1.839844 -1.894531,1.839844 -1.046875,0 -1.894532,-0.824219 -1.894532,-1.839844 0,-1.015625 0.847657,-1.839844 1.894532,-1.839844 z M 21.117187,25 l 7.386719,10.121094 -0.730463,-1.0073 -2.207037,-3.043482 2.9375,-4.046875 5.96875,8.097657 h -5.96875 -14.871093 z"
     style="fill:#50e6ff;fill-opacity:1;paint-order:stroke fill markers"
     id="path13"
     sodipodi:nodetypes="ccccccccccsssssccccccccc" />
</svg>
