<svg xmlns="http://www.w3.org/2000/svg" xmlns:xlink="http://www.w3.org/1999/xlink" viewBox="0 0 26 26"><path d="M7.875 0C7.617188 0.0351563 7.378906 0.167969 7.21875 0.375L3.8125 4.65625L1.5625 3.15625C1.097656 2.84375 0.46875 2.972656 0.15625 3.4375C-0.15625 3.902344 -0.0273438 4.53125 0.4375 4.84375L3.4375 6.84375C3.875 7.132813 4.460938 7.039063 4.78125 6.625L8.78125 1.625C9.042969 1.308594 9.082031 0.863281 8.882813 0.503906C8.679688 0.144531 8.28125 -0.0546875 7.875 0 Z M 12 3L12 5L26 5L26 3 Z M 7.875 9C7.617188 9.035156 7.378906 9.167969 7.21875 9.375L3.8125 13.65625L1.5625 12.15625C1.097656 11.84375 0.46875 11.972656 0.15625 12.4375C-0.15625 12.902344 -0.0273438 13.53125 0.4375 13.84375L3.4375 15.84375C3.875 16.132813 4.460938 16.039063 4.78125 15.625L8.78125 10.625C9.042969 10.308594 9.082031 9.863281 8.882813 9.503906C8.679688 9.144531 8.28125 8.945313 7.875 9 Z M 12 12L12 14L26 14L26 12 Z M 7.875 18C7.617188 18.035156 7.378906 18.167969 7.21875 18.375L3.8125 22.65625L1.5625 21.15625C1.097656 20.84375 0.46875 20.972656 0.15625 21.4375C-0.15625 21.902344 -0.0273438 22.53125 0.4375 22.84375L3.4375 24.84375C3.875 25.132813 4.460938 25.039063 4.78125 24.625L8.78125 19.625C9.042969 19.308594 9.082031 18.863281 8.882813 18.503906C8.679688 18.144531 8.28125 17.945313 7.875 18 Z M 12 21L12 23L26 23L26 21Z"/></svg>