<svg xmlns="http://www.w3.org/2000/svg" xmlns:xlink="http://www.w3.org/1999/xlink" viewBox="0 0 50 50" fill="#5B5B5B">
  <path d="M7 3L7 47L43 47L43 3 Z M 23 5L27 5L27 7L25 7L25 9L27 9L27 13L25 13L25 15L27 15L27 19L25 19L25 21L27 21L27 23L23 23L23 18L25 18L25 16L23 16L23 12L25 12L25 10L23 10 Z M 23 25L27 25C27.550781 25 28 25.449219 28 26L28 27C28 27.550781 27.550781 28 27 28L23 28C22.449219 28 22 27.550781 22 27L22 26C22 25.449219 22.449219 25 23 25 Z M 23.003906 30L26.996094 30C27.441406 31.792969 28 34.148438 28 34.960938C28 36.632813 26.648438 38 25 38C23.351563 38 22 36.632813 22 34.960938C22 34.148438 22.558594 31.792969 23.003906 30 Z M 25 34C24.457031 34 24.011719 34.449219 24.015625 35C24.011719 35.550781 24.457031 36 25 36C25.542969 36 25.988281 35.550781 25.984375 35C25.988281 34.449219 25.542969 34 25 34Z" fill="#5B5B5B" />
</svg>