<svg xmlns="http://www.w3.org/2000/svg" style="display:none"><defs>
<symbol id="icon-audio" viewBox="0 0 48 48"><path fill="#ed3675" d="M20,24c-5.523,0-10,4.477-10,10s4.477,10,10,10s10-4.477,10-10S25.523,24,20,24z"/><linearGradient id="thMIbMD7~VnYoyixFJ5D6a" x1="30" x2="41" y1="8" y2="8" gradientUnits="userSpaceOnUse"><stop offset="0" stop-color="#bd1949"/><stop offset=".108" stop-color="#c31a4b"/><stop offset=".38" stop-color="#ca1b4d"/><stop offset="1" stop-color="#cc1b4e"/></linearGradient><path fill="url(#thMIbMD7~VnYoyixFJ5D6a)" d="M39,12h-9V4h9c1.105,0,2,0.895,2,2v4C41,11.105,40.105,12,39,12z"/><path fill="#ed3675" d="M30,4h-2c-2.209,0-4,1.791-4,4v26h6V4z"/></symbol>
<symbol id="icon-back" viewBox="0 0 48 48"><linearGradient id="_hJYChLD5zxziwZTobIGga" x1="13.25" x2="13.25" y1="42.071" y2="28.237" gradientUnits="userSpaceOnUse"><stop offset=".365" stop-color="#199ae0"/><stop offset=".699" stop-color="#1898de"/><stop offset=".819" stop-color="#1691d8"/><stop offset=".905" stop-color="#1186cc"/><stop offset=".974" stop-color="#0a75bc"/><stop offset="1" stop-color="#076cb3"/></linearGradient><path fill="url(#_hJYChLD5zxziwZTobIGga)" d="M2.484,25.168l15.849,15.849c0.645,0.645,1.69,0.645,2.335,0l3.349-3.349c0.645-0.645,0.645-1.69,0-2.335L8.168,19.484c-0.645-0.645-1.69-0.645-2.335,0l-3.349,3.349C1.839,23.477,1.839,24.523,2.484,25.168z"/><linearGradient id="_hJYChLD5zxziwZTobIGgb" x1="13.588" x2="38.039" y1="35.985" y2="11.533" gradientUnits="userSpaceOnUse"><stop offset="0" stop-color="#32bdef"/><stop offset="1" stop-color="#1ea2e4"/></linearGradient><path fill="url(#_hJYChLD5zxziwZTobIGgb)" d="M44,19H17.684l6.333-6.333c0.645-0.645,0.645-1.69,0-2.335l-3.349-3.349 c-0.645-0.645-1.69-0.645-2.335,0L2.484,22.832c-0.645,0.645-0.645,1.69,0,2.335l3.349,3.349C6.155,28.839,6.577,29,7,29h37 c1.105,0,2-0.895,2-2v-6C46,19.895,45.105,19,44,19z"/></symbol>
<symbol id="icon-chrome" viewBox="0 0 48 48"><path fill="#fff" d="M34,24c0,5.521-4.479,10-10,10s-10-4.479-10-10s4.479-10,10-10S34,18.479,34,24z"/><linearGradient id="Pax8JcnMzivu8f~SZ~k1ya" x1="5.789" x2="31.324" y1="34.356" y2="20.779" gradientTransform="matrix(1 0 0 -1 0 50)" gradientUnits="userSpaceOnUse"><stop offset="0" stop-color="#4caf50"/><stop offset=".489" stop-color="#4aaf50"/><stop offset=".665" stop-color="#43ad50"/><stop offset=".79" stop-color="#38aa50"/><stop offset=".892" stop-color="#27a550"/><stop offset=".978" stop-color="#11a050"/><stop offset="1" stop-color="#0a9e50"/></linearGradient><path fill="url(#Pax8JcnMzivu8f~SZ~k1ya)" d="M31.33,29.21l-8.16,14.77C12.51,43.55,4,34.76,4,24C4,12.96,12.96,4,24,4v11 c-4.97,0-9,4.03-9,9s4.03,9,9,9C27.03,33,29.7,31.51,31.33,29.21z"/><linearGradient id="Pax8JcnMzivu8f~SZ~k1yb" x1="33.58" x2="33.58" y1="6" y2="34.797" gradientTransform="matrix(1 0 0 -1 0 50)" gradientUnits="userSpaceOnUse"><stop offset="0" stop-color="#ffd747"/><stop offset=".482" stop-color="#ffd645"/><stop offset=".655" stop-color="#fed43e"/><stop offset=".779" stop-color="#fccf33"/><stop offset=".879" stop-color="#fac922"/><stop offset=".964" stop-color="#f7c10c"/><stop offset="1" stop-color="#f5bc00"/></linearGradient><path fill="url(#Pax8JcnMzivu8f~SZ~k1yb)" d="M44,24c0,11.05-8.95,20-20,20h-0.84l8.17-14.79C32.38,27.74,33,25.94,33,24 c0-4.97-4.03-9-9-9V4c7.81,0,14.55,4.48,17.85,11C43.21,17.71,44,20.76,44,24z"/><linearGradient id="Pax8JcnMzivu8f~SZ~k1yc" x1="36.128" x2="11.574" y1="44.297" y2="28.954" gradientTransform="matrix(1 0 0 -1 0 50)" gradientUnits="userSpaceOnUse"><stop offset="0" stop-color="#f7572f"/><stop offset=".523" stop-color="#f7552d"/><stop offset=".712" stop-color="#f75026"/><stop offset=".846" stop-color="#f7461b"/><stop offset=".954" stop-color="#f7390a"/><stop offset="1" stop-color="#f73100"/></linearGradient><path fill="url(#Pax8JcnMzivu8f~SZ~k1yc)" d="M41.84,15H24c-4.97,0-9,4.03-9,9c0,1.49,0.36,2.89,1.01,4.13H16L7.16,13.26H7.14 C10.68,7.69,16.91,4,24,4C31.8,4,38.55,8.48,41.84,15z"/><linearGradient id="Pax8JcnMzivu8f~SZ~k1yd" x1="19.05" x2="28.95" y1="30.95" y2="21.05" gradientTransform="matrix(1 0 0 -1 0 50)" gradientUnits="userSpaceOnUse"><stop offset="0" stop-color="#2aa4f4"/><stop offset="1" stop-color="#007ad9"/></linearGradient><path fill="url(#Pax8JcnMzivu8f~SZ~k1yd)" d="M31,24c0,3.867-3.133,7-7,7s-7-3.133-7-7s3.133-7,7-7S31,20.133,31,24z"/></symbol>
<symbol id="icon-code" viewBox="0 0 48 48"><linearGradient id="AkEixl0fFF2Red42g8M2Fa" x1="12.727" x2="4.186" y1="33.727" y2="25.186" gradientUnits="userSpaceOnUse"><stop offset=".365" stop-color="#199ae0"/><stop offset=".699" stop-color="#1898de"/><stop offset=".819" stop-color="#1691d8"/><stop offset=".905" stop-color="#1186cc"/><stop offset=".974" stop-color="#0a75bc"/><stop offset="1" stop-color="#076cb3"/></linearGradient><path fill="url(#AkEixl0fFF2Red42g8M2Fa)" d="M0.29,24.701l9.509,9.509c0.387,0.387,1.014,0.387,1.401,0l2.009-2.009c0.387-0.387,0.387-1.014,0-1.401L3.701,21.29c-0.387-0.387-1.014-0.387-1.401,0L0.29,23.299C-0.097,23.686-0.097,24.314,0.29,24.701z"/><linearGradient id="AkEixl0fFF2Red42g8M2Fb" x1="1.359" x2="12.357" y1="25.641" y2="14.643" gradientUnits="userSpaceOnUse"><stop offset="0" stop-color="#32bdef"/><stop offset="1" stop-color="#1ea2e4"/></linearGradient><path fill="url(#AkEixl0fFF2Red42g8M2Fb)" d="M3.701,26.71l9.509-9.509c0.387-0.387,0.387-1.014,0-1.401l-2.009-2.009c-0.387-0.387-1.014-0.387-1.401,0L0.29,23.299c-0.387,0.387-0.387,1.014,0,1.401l2.009,2.009C2.686,27.097,3.314,27.097,3.701,26.71z"/><linearGradient id="AkEixl0fFF2Red42g8M2Fc" x1="689.727" x2="681.186" y1="33.727" y2="25.186" gradientTransform="matrix(-1 0 0 1 725 0)" gradientUnits="userSpaceOnUse"><stop offset=".365" stop-color="#199ae0"/><stop offset=".699" stop-color="#1898de"/><stop offset=".819" stop-color="#1691d8"/><stop offset=".905" stop-color="#1186cc"/><stop offset=".974" stop-color="#0a75bc"/><stop offset="1" stop-color="#076cb3"/></linearGradient><path fill="url(#AkEixl0fFF2Red42g8M2Fc)" d="M47.71,24.701l-9.509,9.509c-0.387,0.387-1.014,0.387-1.401,0l-2.009-2.009c-0.387-0.387-0.387-1.014,0-1.401l9.509-9.509c0.387-0.387,1.014-0.387,1.401,0l2.009,2.009C48.097,23.686,48.097,24.314,47.71,24.701z"/><linearGradient id="AkEixl0fFF2Red42g8M2Fd" x1="678.359" x2="689.357" y1="25.641" y2="14.643" gradientTransform="matrix(-1 0 0 1 725 0)" gradientUnits="userSpaceOnUse"><stop offset="0" stop-color="#32bdef"/><stop offset="1" stop-color="#1ea2e4"/></linearGradient><path fill="url(#AkEixl0fFF2Red42g8M2Fd)" d="M44.299,26.71l-9.509-9.509c-0.387-0.387-0.387-1.014,0-1.401l2.009-2.009c0.387-0.387,1.014-0.387,1.401,0l9.509,9.509c0.387,0.387,0.387,1.014,0,1.401l-2.009,2.009C45.314,27.097,44.686,27.097,44.299,26.71z"/><path fill="#0078d4" d="M30.25,2.5h-3.61c-0.473,0-0.882,0.332-0.979,0.795l-8.644,41.301c-0.098,0.466,0.258,0.904,0.734,0.904h3.61c0.473,0,0.882-0.332,0.979-0.795l8.644-41.301C31.081,2.938,30.726,2.5,30.25,2.5z"/></symbol>
<symbol id="icon-code1" viewBox="0 0 50 50"><path d="M43,4H7C5.346,4,4,5.346,4,7v36c0,1.654,1.346,3,3,3h36c1.654,0,3-1.346,3-3V7C46,5.346,44.654,4,43,4z M18.496,28.132 c0.479,0.274,0.646,0.885,0.372,1.364C18.684,29.819,18.347,30,17.999,30c-0.168,0-0.339-0.042-0.495-0.132l-7-4 C10.192,25.69,10,25.358,10,25s0.192-0.69,0.504-0.868l7-4c0.479-0.276,1.09-0.108,1.364,0.372c0.274,0.479,0.107,1.09-0.372,1.364 L13.016,25L18.496,28.132z M29.929,15.371l-8,20C21.772,35.763,21.396,36,21,36c-0.124,0-0.25-0.022-0.371-0.071 c-0.513-0.205-0.763-0.787-0.558-1.3l8-20c0.205-0.515,0.79-0.764,1.3-0.558C29.884,14.276,30.134,14.858,29.929,15.371z M39.496,25.868l-7,4C32.34,29.958,32.169,30,32.001,30c-0.348,0-0.685-0.181-0.869-0.504c-0.274-0.479-0.107-1.09,0.372-1.364 L36.984,25l-5.48-3.132c-0.479-0.274-0.646-0.885-0.372-1.364c0.273-0.48,0.885-0.648,1.364-0.372l7,4 C39.808,24.31,40,24.642,40,25S39.808,25.69,39.496,25.868z" fill="#5B5B5B" /></symbol>
<symbol id="icon-comments" viewBox="0 0 26 26"><path d="M4 1C1.804688 1 0 2.800781 0 5L0 15C0 17.195313 1.804688 19 4 19L6.3125 19L8.0625 23.375C8.207031 23.765625 8.582031 24.027344 9 24.027344C9.417969 24.027344 9.792969 23.765625 9.9375 23.375L11.6875 19L22 19C24.195313 19 26 17.195313 26 15L26 5C26 2.800781 24.195313 1 22 1 Z M 4 3L22 3C23.117188 3 24 3.882813 24 5L24 15C24 16.113281 23.113281 17 22 17L11 17C10.589844 16.996094 10.214844 17.242188 10.0625 17.625L9 20.28125L7.9375 17.625C7.785156 17.242188 7.410156 16.996094 7 17L4 17C2.886719 17 2 16.113281 2 15L2 5C2 3.882813 2.882813 3 4 3Z"/></symbol>
<symbol id="icon-css" viewBox="0 0 48 48"><path fill="#0277BD" d="M41,5H7l3,34l14,4l14-4L41,5L41,5z"/><path fill="#039BE5" d="M24 8L24 39.9 35.2 36.7 37.7 8z"/><path fill="#FFF" d="M33.1 13L24 13 24 17 28.9 17 28.6 21 24 21 24 25 28.4 25 28.1 29.5 24 30.9 24 35.1 31.9 32.5 32.6 21 32.6 21z"/><path fill="#EEE" d="M24,13v4h-8.9l-0.3-4H24z M19.4,21l0.2,4H24v-4H19.4z M19.8,27h-4l0.3,5.5l7.9,2.6v-4.2l-4.1-1.4L19.8,27z"/></symbol>
<symbol id="icon-cut" viewBox="0 0 48 48"><linearGradient id="dkrMU4kZauJOsfBcRZhsWa" x1="29" x2="29" y1="17.841" y2="42.075" gradientUnits="userSpaceOnUse"><stop offset="0" stop-color="#0d61a9"/><stop offset="1" stop-color="#16528c"/></linearGradient><path fill="url(#dkrMU4kZauJOsfBcRZhsWa)" d="M43,38c0-0.552,0.448-1,1-1v-2c-0.552,0-1-0.448-1-1c0-0.552,0.448-1,1-1v-2c-0.552,0-1-0.448-1-1c0-0.552,0.448-1,1-1v-2c-0.552,0-1-0.448-1-1c0-0.552,0.448-1,1-1v-2c-0.552,0-1-0.448-1-1c0-0.552,0.448-1,1-1v-1c0-1.105-0.895-2-2-2h-2c0,0.552-0.448,1-1,1s-1-0.448-1-1h-2c0,0.552-0.448,1-1,1s-1-0.448-1-1h-2c0,0.552-0.448,1-1,1s-1-0.448-1-1h-2c0,0.552-0.448,1-1,1s-1-0.448-1-1h-2c0,0.552-0.448,1-1,1s-1-0.448-1-1h-6c-1.105,0-2,0.895-2,2v5c0.552,0,1,0.448,1,1c0,0.552-0.448,1-1,1v2c0.552,0,1,0.448,1,1c0,0.552-0.448,1-1,1v2c0.552,0,1,0.448,1,1c0,0.552-0.448,1-1,1v2c0.552,0,1,0.448,1,1c0,0.552-0.448,1-1,1v1c0,1.105,0.895,2,2,2h2c0-0.552,0.448-1,1-1s1,0.448,1,1h2c0-0.552,0.448-1,1-1s1,0.448,1,1h2c0-0.552,0.448-1,1-1s1,0.448,1,1h2c0-0.552,0.448-1,1-1s1,0.448,1,1h2c0-0.552,0.448-1,1-1s1,0.448,1,1h2c0-0.552,0.448-1,1-1s1,0.448,1,1h2c1.105,0,2-0.895,2-2v-1C43.448,39,43,38.552,43,38z"/><linearGradient id="dkrMU4kZauJOsfBcRZhsWb" x1="7" x2="7" y1="21.927" y2="30.078" gradientUnits="userSpaceOnUse"><stop offset="0" stop-color="#199ae0"/><stop offset="1" stop-color="#0782d8"/></linearGradient><path fill="url(#dkrMU4kZauJOsfBcRZhsWb)" d="M7,22c-2.171,0-4,1.829-4,4c0,2.171,1.829,4,4,4s4-1.829,4-4C11,23.829,9.171,22,7,22z M7,28c-1.067,0-2-0.933-2-2c0-1.067,0.933-2,2-2s2,0.933,2,2C9,27.067,8.067,28,7,28z"/><linearGradient id="dkrMU4kZauJOsfBcRZhsWc" x1="10.25" x2="10.25" y1="22.028" y2="29.968" gradientUnits="userSpaceOnUse"><stop offset="0" stop-color="#199ae0"/><stop offset="1" stop-color="#0782d8"/></linearGradient><polygon fill="url(#dkrMU4kZauJOsfBcRZhsWc)" points="10.414,25.414 7.586,22.586 10.086,20.086 12.914,22.914"/><linearGradient id="dkrMU4kZauJOsfBcRZhsWd" x1="19.457" x2="19.457" y1="12.8" y2="36.514" gradientUnits="userSpaceOnUse"><stop offset="0" stop-color="#9a9a9a"/><stop offset=".302" stop-color="#929292"/><stop offset=".757" stop-color="#7e7e7e"/><stop offset="1" stop-color="#707070"/></linearGradient><path fill="url(#dkrMU4kZauJOsfBcRZhsWd)" d="M22,8.172L10.086,20.086l2.828,2.828L28.828,7h-4C23.768,7,22.75,7.421,22,8.172z"/><linearGradient id="dkrMU4kZauJOsfBcRZhsWe" x1="3" x2="12.914" y1="10.957" y2="10.957" gradientUnits="userSpaceOnUse"><stop offset="0" stop-color="#32bdef"/><stop offset="1" stop-color="#1ea2e4"/></linearGradient><path fill="url(#dkrMU4kZauJOsfBcRZhsWe)" d="M12.914,13.086l-2.068-2.068C10.936,10.69,11,10.352,11,10c0-2.171-1.829-4-4-4 s-4,1.829-4,4c0,2.171,1.829,4,4,4c0.352,0,0.69-0.064,1.018-0.154l2.068,2.068L12.914,13.086z M5,10c0-1.067,0.933-2,2-2 s2,0.933,2,2c0,1.067-0.933,2-2,2S5,11.067,5,10z"/><linearGradient id="dkrMU4kZauJOsfBcRZhsWf" x1="10.086" x2="28.828" y1="21.043" y2="21.043" gradientUnits="userSpaceOnUse"><stop offset="0" stop-color="#c9c9c9"/><stop offset="1" stop-color="#b3b3b3"/></linearGradient><path fill="url(#dkrMU4kZauJOsfBcRZhsWf)" d="M28.828,29L12.914,13.086l-2.828,2.828L22,27.828C22.75,28.579,23.768,29,24.828,29H28.828z"/><circle cx="15" cy="18" r=".667" fill="#fff"/><polygon fill="#e6e6e6" points="19,21.333 26.667,29 28.828,29 20.081,20.252"/></symbol>
<symbol id="icon-excel" viewBox="0 0 50 50"><?xml version="1.0" encoding="UTF-8" standalone="no"?>

  <defs
     id="defs1" />
  <sodipodi:namedview
     id="namedview1"
     pagecolor="#ffffff"
     bordercolor="#000000"
     borderopacity="0.25"
     inkscape:showpageshadow="2"
     inkscape:pageopacity="0.0"
     inkscape:pagecheckerboard="0"
     inkscape:deskcolor="#d1d1d1"
     inkscape:zoom="16.74"
     inkscape:cx="24.970131"
     inkscape:cy="25"
     inkscape:window-width="1920"
     inkscape:window-height="1051"
     inkscape:window-x="-9"
     inkscape:window-y="-9"
     inkscape:window-maximized="1"
     inkscape:current-layer="svg1" />
  <path
     d="m 32,6 v 7 h 2 v 2 h -2 v 5 h 2 v 2 h -2 v 5 h 2 v 2 h -2 v 6 h 2 v 2 h -2 v 7 h 15 c 1.101563,0 2,-0.898437 2,-2 V 8 C 49,6.898438 48.101563,6 47,6 Z"
     style="fill:#4caf50;fill-opacity:1"
     id="path31" />
  <path
     d="m 29.03125,0.00976563 c -0.0719,-6.104e-5 -0.145508,0.0078125 -0.21875,0.02148437 l -28,5.3125 C 0.339844,5.433594 0,5.863281 0,6.34375 v 37.3125 c 0,0.480469 0.339844,0.910156 0.8125,1 l 28,5.3125 C 28.875,49.980469 28.9375,50 29,50 c 0.230469,0 0.445313,-0.07031 0.625,-0.21875 C 29.855469,49.589844 30,49.296875 30,49 V 1 C 30,0.703125 29.855469,0.410156 29.625,0.21875 29.452148,0.07519535 29.246948,0.00994874 29.03125,0.00976563 Z M 6.6875,15.6875 h 5.125 L 14.5,21.28125 c 0.210938,0.441406 0.398438,0.984375 0.5625,1.59375 h 0.03125 c 0.105469,-0.363281 0.308594,-0.933594 0.59375,-1.65625 l 2.96875,-5.53125 h 4.6875 l -5.59375,9.25 5.75,9.4375 h -4.96875 l -3.25,-6.09375 c -0.121094,-0.226562 -0.246094,-0.644531 -0.375,-1.25 H 14.875 c -0.0625,0.285156 -0.210937,0.730469 -0.4375,1.3125 l -3.25,6.03125 h -5 l 5.96875,-9.34375 z M 36,20 h 8 v 2 h -8 z m 0,7 h 8 v 2 h -8 z m 0,8 h 8 v 2 h -8 z"
     style="fill:#2e7d32;fill-opacity:1"
     id="path30" />
  <path
     d="m 36,13 v 2 h 8 v -2 z"
     style="fill:#ffffff"
     id="path29" />
  <path
     d="m 36,20 v 2 h 8 v -2 z"
     style="fill:#ffffff"
     id="path28" />
  <path
     d="m 36,27 v 2 h 8 v -2 z"
     style="fill:#ffffff"
     id="path27" />
  <path
     d="m 36,35 v 2 h 8 v -2 z"
     style="fill:#ffffff"
     id="path26" />
  <path
     d="M 6.6875,15.6875 12.15625,25.03125 6.1875,34.375 h 5 l 3.25,-6.03125 c 0.226563,-0.582031 0.375,-1.027344 0.4375,-1.3125 h 0.03125 c 0.128906,0.605469 0.253906,1.023438 0.375,1.25 l 3.25,6.09375 H 23.5 l -5.75,-9.4375 5.59375,-9.25 h -4.6875 l -2.96875,5.53125 c -0.285156,0.722656 -0.488281,1.292969 -0.59375,1.65625 H 15.0625 C 14.898438,22.265625 14.710938,21.722656 14.5,21.28125 L 11.8125,15.6875 Z"
     style="fill:#ffffff"
     id="path25" /></symbol>
<symbol id="icon-file_explorer" viewBox="0 0 48 48"><linearGradient id="Jk4AAv6ULAQCv3MFe9sLga" x1="24" x2="24" y1="6.708" y2="14.977" gradientUnits="userSpaceOnUse"><stop offset="0" stop-color="#eba600"/><stop offset="1" stop-color="#c28200"/></linearGradient><path fill="url(#Jk4AAv6ULAQCv3MFe9sLga)" d="M24.414,10.414l-2.536-2.536C21.316,7.316,20.553,7,19.757,7L5,7C3.895,7,3,7.895,3,9l0,30c0,1.105,0.895,2,2,2l38,0c1.105,0,2-0.895,2-2V13c0-1.105-0.895-2-2-2l-17.172,0C25.298,11,24.789,10.789,24.414,10.414z"/><linearGradient id="Jk4AAv6ULAQCv3MFe9sLgb" x1="24" x2="24" y1="10.854" y2="40.983" gradientUnits="userSpaceOnUse"><stop offset="0" stop-color="#ffd869"/><stop offset="1" stop-color="#fec52b"/></linearGradient><path fill="url(#Jk4AAv6ULAQCv3MFe9sLgb)" d="M21.586,14.414l3.268-3.268C24.947,11.053,25.074,11,25.207,11H43c1.105,0,2,0.895,2,2v26c0,1.105-0.895,2-2,2H5c-1.105,0-2-0.895-2-2V15.5C3,15.224,3.224,15,3.5,15h16.672C20.702,15,21.211,14.789,21.586,14.414z"/><linearGradient id="Jk4AAv6ULAQCv3MFe9sLgc" x1="17.563" x2="32.184" y1="28.037" y2="42.236" gradientUnits="userSpaceOnUse"><stop offset="0" stop-color="#0176d1"/><stop offset="1" stop-color="#016dc2"/></linearGradient><path fill="url(#Jk4AAv6ULAQCv3MFe9sLgc)" d="M38,28v13c0,0.552-0.448,1-1,1h-6c-0.552,0-1-0.448-1-1v-7H18v7c0,0.552-0.448,1-1,1h-6c-0.552,0-1-0.448-1-1V28c0-1.105,0.895-2,2-2h24C37.105,26,38,26.895,38,28z"/><linearGradient id="Jk4AAv6ULAQCv3MFe9sLgd" x1="24" x2="24" y1="25.968" y2="34.273" gradientUnits="userSpaceOnUse"><stop offset="0" stop-color="#118fdd"/><stop offset="1" stop-color="#108bd6"/></linearGradient><path fill="url(#Jk4AAv6ULAQCv3MFe9sLgd)" d="M36,26H12c-0.618,0-1.163,0.286-1.53,0.726L18,34h12l7.53-7.274C37.163,26.286,36.618,26,36,26z"/></symbol>
<symbol id="icon-folder" viewBox="0 0 48 48"><linearGradient id="WQEfvoQAcpQgQgyjQQ4Hqa" x1="24" x2="24" y1="6.708" y2="14.977" gradientUnits="userSpaceOnUse"><stop offset="0" stop-color="#eba600"/><stop offset="1" stop-color="#c28200"/></linearGradient><path fill="url(#WQEfvoQAcpQgQgyjQQ4Hqa)" d="M24.414,10.414l-2.536-2.536C21.316,7.316,20.553,7,19.757,7L5,7C3.895,7,3,7.895,3,9l0,30c0,1.105,0.895,2,2,2l38,0c1.105,0,2-0.895,2-2V13c0-1.105-0.895-2-2-2l-17.172,0C25.298,11,24.789,10.789,24.414,10.414z"/><linearGradient id="WQEfvoQAcpQgQgyjQQ4Hqb" x1="24" x2="24" y1="10.854" y2="40.983" gradientUnits="userSpaceOnUse"><stop offset="0" stop-color="#ffd869"/><stop offset="1" stop-color="#fec52b"/></linearGradient><path fill="url(#WQEfvoQAcpQgQgyjQQ4Hqb)" d="M21.586,14.414l3.268-3.268C24.947,11.053,25.074,11,25.207,11H43c1.105,0,2,0.895,2,2v26c0,1.105-0.895,2-2,2H5c-1.105,0-2-0.895-2-2V15.5C3,15.224,3.224,15,3.5,15h16.672C20.702,15,21.211,14.789,21.586,14.414z"/></symbol>
<symbol id="icon-history" viewBox="0 0 48 48"><linearGradient id="47sbhVaa0DjZQZGvyicGva" x1="10.233" x2="10.233" y1="35.348" y2="23.795" gradientUnits="userSpaceOnUse"><stop offset=".365" stop-color="#199ae0"/><stop offset=".699" stop-color="#1898de"/><stop offset=".819" stop-color="#1691d8"/><stop offset=".905" stop-color="#1186cc"/><stop offset=".974" stop-color="#0a75bc"/><stop offset="1" stop-color="#076cb3"/></linearGradient><path fill="url(#47sbhVaa0DjZQZGvyicGva)" d="M18,22.732c-4.698-0.622-16.028-2.077-15.516-1.565l13.474,13.474C16.711,35.395,18,34.862,18,33.796V22.732z"/><linearGradient id="47sbhVaa0DjZQZGvyicGvb" x1="17.557" x2="36.867" y1="36.015" y2="16.705" gradientUnits="userSpaceOnUse"><stop offset="0" stop-color="#32bdef"/><stop offset="1" stop-color="#1ea2e4"/></linearGradient><path fill="url(#47sbhVaa0DjZQZGvyicGvb)" d="M28,15H18V6.204c0-1.066-1.289-1.6-2.042-0.846L2.485,18.831 c-0.646,0.646-0.646,1.693,0,2.338l3.347,3.347C6.155,24.839,6.577,25,7,25h21c3.314,0,6,2.686,6,6v10c0,1.105,0.895,2,2,2h6 c1.105,0,2-0.895,2-2V31C44,22.163,36.837,15,28,15z"/></symbol>
<symbol id="icon-html" viewBox="0 0 48 48"><path fill="#E65100" d="M41,5H7l3,34l14,4l14-4L41,5L41,5z"/><path fill="#FF6D00" d="M24 8L24 39.9 35.2 36.7 37.7 8z"/><path fill="#FFF" d="M24,25v-4h8.6l-0.7,11.5L24,35.1v-4.2l4.1-1.4l0.3-4.5H24z M32.9,17l0.3-4H24v4H32.9z"/><path fill="#EEE" d="M24,30.9v4.2l-7.9-2.6L15.7,27h4l0.2,2.5L24,30.9z M19.1,17H24v-4h-9.1l0.7,12H24v-4h-4.6L19.1,17z"/></symbol>
<symbol id="icon-js" viewBox="0 0 48 48"><path fill="#ffd600" d="M6,42V6h36v36H6z"/><path fill="#000001" d="M29.538 32.947c.692 1.124 1.444 2.201 3.037 2.201 1.338 0 2.04-.665 2.04-1.585 0-1.101-.726-1.492-2.198-2.133l-.807-.344c-2.329-.988-3.878-2.226-3.878-4.841 0-2.41 1.845-4.244 4.728-4.244 2.053 0 3.528.711 4.592 2.573l-2.514 1.607c-.553-.988-1.151-1.377-2.078-1.377-.946 0-1.545.597-1.545 1.377 0 .964.6 1.354 1.985 1.951l.807.344C36.452 29.645 38 30.839 38 33.523 38 36.415 35.716 38 32.65 38c-2.999 0-4.702-1.505-5.65-3.368L29.538 32.947zM17.952 33.029c.506.906 1.275 1.603 2.381 1.603 1.058 0 1.667-.418 1.667-2.043V22h3.333v11.101c0 3.367-1.953 4.899-4.805 4.899-2.577 0-4.437-1.746-5.195-3.368L17.952 33.029z"/></symbol>
<symbol id="icon-like" viewBox="0 0 48 48"><linearGradient id="2muI1FZ_OKDyP0QHoylBQa" x1="15.941" x2="35.261" y1="4.617" y2="34.37" gradientUnits="userSpaceOnUse"><stop offset="0" stop-color="#f44f5a"/><stop offset=".443" stop-color="#ee3d4a"/><stop offset="1" stop-color="#e52030"/></linearGradient><path fill="url(#2muI1FZ_OKDyP0QHoylBQa)" d="M24,12.25c0,0,4.701-5.25,10.5-5.25S45,11.765,45,17.5c0,3.555-3.501,6.999-3.501,6.999L25.771,40.229c-0.978,0.978-2.565,0.978-3.543,0L6.501,24.499c0,0-3.501-3.446-3.501-6.999C3,11.765,7.701,7,13.5,7S24,12.25,24,12.25z"/></symbol>
<symbol id="icon-low_volume" viewBox="0 0 26 26"><path d="M16.03125 2.0625C15.710938 2.066406 15.355469 2.207031 15.03125 2.53125L8.4375 9L5 9C4.449219 9 4 9.449219 4 10L4 16C4 16.550781 4.449219 17 5 17L8.4375 17L15 23.4375C16 24.4375 17 23.925781 17 22.5625L17 3.28125C17 2.488281 16.566406 2.058594 16.03125 2.0625 Z M 18.53125 9.09375C18.054688 9.171875 17.699219 9.582031 17.691406 10.066406C17.683594 10.550781 18.023438 10.96875 18.5 11.0625C19.355469 11.285156 20 12.0625 20 13C20 13.9375 19.355469 14.714844 18.5 14.9375C17.964844 15.074219 17.644531 15.621094 17.78125 16.15625C17.917969 16.691406 18.464844 17.011719 19 16.875C20.722656 16.425781 22 14.851563 22 13C22 11.148438 20.722656 9.574219 19 9.125C18.878906 9.089844 18.75 9.082031 18.625 9.09375C18.59375 9.09375 18.5625 9.09375 18.53125 9.09375Z"/></symbol>
<symbol id="icon-md" viewBox="0 0 50 50"><path d="M46 10L4 10C1.792969 10 0 11.792969 0 14L0 38C0 40.207031 1.792969 42 4 42L46 42C48.207031 42 50 40.207031 50 38L50 14C50 11.792969 48.207031 10 46 10 Z M 26 34L22 34L22 23.332031L17 30L12 23.332031L12 34L8 34L8 18L12 18L17 24.71875L22 18L26 18 Z M 37 34L30 26L35 26L35 18L39 18L39 26L44 26Z" fill="#5B5B5B" /></symbol>
<symbol id="icon-menu" viewBox="0 0 48 48"><linearGradient id="U7BGsV~AtUTqiuHYd7X8Ma" x1="11" x2="11" y1="5.723" y2="15.488" gradientUnits="userSpaceOnUse"><stop offset="0" stop-color="#32bdef"/><stop offset="1" stop-color="#1ea2e4"/></linearGradient><path fill="url(#U7BGsV~AtUTqiuHYd7X8Ma)" d="M14.75,16h-7.5C6.563,16,6,15.438,6,14.75v-7.5C6,6.563,6.563,6,7.25,6h7.5C15.438,6,16,6.563,16,7.25v7.5C16,15.438,15.438,16,14.75,16z"/><linearGradient id="U7BGsV~AtUTqiuHYd7X8Mb" x1="24" x2="24" y1="5.723" y2="15.488" gradientUnits="userSpaceOnUse"><stop offset="0" stop-color="#32bdef"/><stop offset="1" stop-color="#1ea2e4"/></linearGradient><path fill="url(#U7BGsV~AtUTqiuHYd7X8Mb)" d="M27.75,16h-7.5C19.563,16,19,15.438,19,14.75v-7.5C19,6.563,19.563,6,20.25,6h7.5C28.438,6,29,6.563,29,7.25v7.5C29,15.438,28.438,16,27.75,16z"/><linearGradient id="U7BGsV~AtUTqiuHYd7X8Mc" x1="37" x2="37" y1="5.723" y2="15.488" gradientUnits="userSpaceOnUse"><stop offset="0" stop-color="#32bdef"/><stop offset="1" stop-color="#1ea2e4"/></linearGradient><path fill="url(#U7BGsV~AtUTqiuHYd7X8Mc)" d="M40.75,16h-7.5C32.563,16,32,15.438,32,14.75v-7.5C32,6.563,32.563,6,33.25,6h7.5C41.438,6,42,6.563,42,7.25v7.5C42,15.438,41.438,16,40.75,16z"/><linearGradient id="U7BGsV~AtUTqiuHYd7X8Md" x1="11" x2="11" y1="18.745" y2="28.108" gradientUnits="userSpaceOnUse"><stop offset="0" stop-color="#32bdef"/><stop offset="1" stop-color="#1ea2e4"/></linearGradient><path fill="url(#U7BGsV~AtUTqiuHYd7X8Md)" d="M14.75,29h-7.5C6.563,29,6,28.438,6,27.75v-7.5C6,19.563,6.563,19,7.25,19h7.5c0.688,0,1.25,0.563,1.25,1.25v7.5C16,28.438,15.438,29,14.75,29z"/><linearGradient id="U7BGsV~AtUTqiuHYd7X8Me" x1="24" x2="24" y1="18.745" y2="28.108" gradientUnits="userSpaceOnUse"><stop offset="0" stop-color="#32bdef"/><stop offset="1" stop-color="#1ea2e4"/></linearGradient><path fill="url(#U7BGsV~AtUTqiuHYd7X8Me)" d="M27.75,29h-7.5C19.563,29,19,28.438,19,27.75v-7.5c0-0.688,0.563-1.25,1.25-1.25h7.5c0.688,0,1.25,0.563,1.25,1.25v7.5C29,28.438,28.438,29,27.75,29z"/><linearGradient id="U7BGsV~AtUTqiuHYd7X8Mf" x1="37" x2="37" y1="18.745" y2="28.108" gradientUnits="userSpaceOnUse"><stop offset="0" stop-color="#32bdef"/><stop offset="1" stop-color="#1ea2e4"/></linearGradient><path fill="url(#U7BGsV~AtUTqiuHYd7X8Mf)" d="M40.75,29h-7.5C32.563,29,32,28.438,32,27.75v-7.5c0-0.688,0.563-1.25,1.25-1.25h7.5c0.688,0,1.25,0.563,1.25,1.25v7.5C42,28.438,41.438,29,40.75,29z"/><linearGradient id="U7BGsV~AtUTqiuHYd7X8Mg" x1="11" x2="11" y1="32.362" y2="41.385" gradientUnits="userSpaceOnUse"><stop offset="0" stop-color="#32bdef"/><stop offset="1" stop-color="#1ea2e4"/></linearGradient><path fill="url(#U7BGsV~AtUTqiuHYd7X8Mg)" d="M14.75,42h-7.5C6.563,42,6,41.438,6,40.75v-7.5C6,32.563,6.563,32,7.25,32h7.5c0.688,0,1.25,0.563,1.25,1.25v7.5C16,41.438,15.438,42,14.75,42z"/><linearGradient id="U7BGsV~AtUTqiuHYd7X8Mh" x1="24" x2="24" y1="32.362" y2="41.385" gradientUnits="userSpaceOnUse"><stop offset="0" stop-color="#32bdef"/><stop offset="1" stop-color="#1ea2e4"/></linearGradient><path fill="url(#U7BGsV~AtUTqiuHYd7X8Mh)" d="M27.75,42h-7.5C19.563,42,19,41.438,19,40.75v-7.5c0-0.688,0.563-1.25,1.25-1.25h7.5c0.688,0,1.25,0.563,1.25,1.25v7.5C29,41.438,28.438,42,27.75,42z"/><linearGradient id="U7BGsV~AtUTqiuHYd7X8Mi" x1="37" x2="37" y1="32.362" y2="41.385" gradientUnits="userSpaceOnUse"><stop offset="0" stop-color="#32bdef"/><stop offset="1" stop-color="#1ea2e4"/></linearGradient><path fill="url(#U7BGsV~AtUTqiuHYd7X8Mi)" d="M40.75,42h-7.5C32.563,42,32,41.438,32,40.75v-7.5c0-0.688,0.563-1.25,1.25-1.25h7.5c0.688,0,1.25,0.563,1.25,1.25v7.5C42,41.438,41.438,42,40.75,42z"/></symbol>
<symbol id="icon-messages" viewBox="0 0 48 48"><path fill="#0f0" d="M35,6H13c-3.866,0-7,3.134-7,7v22c0,3.866,3.134,7,7,7h22c3.866,0,7-3.134,7-7V13C42,9.134,38.866,6,35,6z"/><path fill="#fff" d="M24,12c-7.18,0-13,4.925-13,11c0,4.074,2.624,7.622,6.513,9.523C16.931,33.773,16.087,34.949,15,36c2.162-0.38,4.191-1.175,5.937-2.32C21.921,33.882,22.943,34,24,34c7.18,0,13-4.925,13-11S31.18,12,24,12z"/></symbol>
<symbol id="icon-no_audio" viewBox="0 0 26 26"><path d="M0.90625 -0.03125C0.863281 -0.0234375 0.820313 -0.0117188 0.78125 0C0.40625 0.0664063 0.105469 0.339844 0 0.703125C-0.105469 1.070313 0.00390625 1.460938 0.28125 1.71875L24.28125 25.71875C24.679688 26.117188 25.320313 26.117188 25.71875 25.71875C26.117188 25.320313 26.117188 24.679688 25.71875 24.28125L22.53125 21.09375C24.726563 19.066406 26.09375 16.210938 26.09375 13.09375C26.09375 8.894531 23.800781 5.210938 20 3.3125C19.5 3.113281 18.886719 3.289063 18.6875 3.6875C18.386719 4.085938 18.601563 4.699219 19 5C22.101563 6.5 24 9.601563 24 13C24 15.617188 22.898438 17.960938 21.0625 19.625L19.78125 18.3125C21.101563 16.851563 21.90625 14.929688 21.90625 12.90625C21.90625 10.007813 20.289063 7.304688 17.6875 5.90625C17.1875 5.605469 16.613281 5.8125 16.3125 6.3125C16.210938 6.8125 16.414063 7.488281 16.8125 7.6875C18.8125 8.789063 20 10.800781 20 13C20 14.519531 19.417969 15.933594 18.4375 17L17.03125 15.59375C17.648438 14.902344 18 14.007813 18 13C18 11.199219 16.800781 9.59375 15 9.09375C14.5 8.992188 13.914063 9.3125 13.8125 9.8125C13.710938 10.414063 14 10.894531 14.5 11.09375C15.398438 11.292969 16 12.101563 16 13C16 13.433594 15.871094 13.855469 15.625 14.1875L13 11.5625L13 3.3125C13 2.011719 11.898438 1.695313 11 2.59375L7.46875 6.03125L1.71875 0.28125C1.511719 0.0585938 1.210938 -0.0546875 0.90625 -0.03125 Z M 4.6875 8.8125L4.40625 9L1 9C0.398438 9 0 9.398438 0 10L0 16C0 16.601563 0.398438 17 1 17L4.40625 17L10.90625 23.40625C11.90625 24.40625 12.90625 23.898438 12.90625 22.5L12.90625 17.09375Z"/></symbol>
<symbol id="icon-pdf" viewBox="0 0 48 48"><path fill="#ffadc8" d="M39,16v25c0,1.105-0.895,2-2,2H11c-1.105,0-2-0.895-2-2V7c0-1.105,0.895-2,2-2h17L39,16z"/><linearGradient id="4qMvyklc_Ue2kRRhSSsFWa" x1="28.649" x2="33.551" y1="15.351" y2="10.449" gradientUnits="userSpaceOnUse"><stop offset="0" stop-color="#f44f5a"/><stop offset=".337" stop-color="#f34c57"/><stop offset=".595" stop-color="#f0424f"/><stop offset=".825" stop-color="#eb3240"/><stop offset="1" stop-color="#e52030"/></linearGradient><path fill="url(#4qMvyklc_Ue2kRRhSSsFWa)" d="M28,5v9c0,1.105,0.895,2,2,2h9L28,5z"/><path fill="#e52030" d="M16,38c-0.4,0-0.7-0.1-1-0.2c-1.1-0.6-1.2-1.5-1-2.2c0.4-1.2,2.6-2.7,5.5-4l0,0c1.3-2.4,2.3-4.9,2.9-7c-1-1.9-1.5-3.7-1.5-5c0-0.7,0.2-1.3,0.5-1.8c0.4-0.5,1-0.8,1.8-0.8c0.9,0,1.6,0.5,1.9,1.4c0.5,1.2,0.2,3.4-0.5,5.9c1,1.7,2.2,3.3,3.5,4.5c1.9-0.4,3.6-0.6,4.7-0.4c1.9,0.3,2.2,1.6,2.2,2.1c0,2.1-2.2,2.1-3,2.1c-1.5,0-3-0.6-4.3-1.7l0,0c-2.4,0.6-4.8,1.4-6.7,2.3c-1,1.7-2,3.1-2.9,3.9C17.2,37.8,16.5,38,16,38z M17.2,35.1c-0.5,0.3-0.9,0.6-1.1,0.9C16.3,35.9,16.7,35.7,17.2,35.1z M30.8,30.4c0.4,0.1,0.8,0.2,1.2,0.2c0.6,0,0.9-0.1,1-0.1l0,0C32.9,30.4,32.2,30.2,30.8,30.4z M23.8,26.8c-0.4,1.2-1,2.5-1.5,3.7c1.2-0.4,2.4-0.8,3.6-1.1C25.1,28.6,24.4,27.7,23.8,26.8z M23.2,19c-0.1,0-0.1,0-0.1,0c-0.1,0.1-0.2,0.8,0.2,2.3C23.4,20.1,23.4,19.2,23.2,19z"/></symbol>
<symbol id="icon-photo" viewBox="0 0 48 48"><path fill="#50e6ff" d="M40,6H8C6.895,6,6,6.895,6,8v30c0,1.105,0.895,2,2,2h32c1.105,0,2-0.895,2-2V8 C42,6.895,41.105,6,40,6z"/><linearGradient id="YuumOLjCrULofRDNXgQAXa" x1="18" x2="42" y1="32.093" y2="32.093" gradientUnits="userSpaceOnUse"><stop offset="0" stop-color="#3ccbf4"/><stop offset="1" stop-color="#1fa0e5"/></linearGradient><path fill="url(#YuumOLjCrULofRDNXgQAXa)" d="M32.065,23.065c-1.149-1.149-3.005-1.174-4.185-0.057L18,32.368V42h22c1.105,0,2-0.895,2-2 v-7L32.065,23.065z"/><circle cx="30.5" cy="14.5" r="3.5" fill="#fff8de"/><linearGradient id="YuumOLjCrULofRDNXgQAXb" x1="23.91" x2="23.91" y1="18.186" y2="42" gradientUnits="userSpaceOnUse"><stop offset="0" stop-color="#28afea"/><stop offset="1" stop-color="#0b88da"/></linearGradient><path fill="url(#YuumOLjCrULofRDNXgQAXb)" d="M8,42h32c0.811,0,1.507-0.485,1.82-1.18L20.065,19.065c-1.149-1.149-3.005-1.174-4.185-0.057 L6,28.368V40C6,41.105,6.895,42,8,42z"/></symbol>
<symbol id="icon-ppt" viewBox="0 0 50 50"><?xml version="1.0" encoding="UTF-8" standalone="no"?>

  <defs
     id="defs1" />
  <sodipodi:namedview
     id="namedview1"
     pagecolor="#ffffff"
     bordercolor="#000000"
     borderopacity="0.25"
     inkscape:showpageshadow="2"
     inkscape:pageopacity="0.0"
     inkscape:pagecheckerboard="0"
     inkscape:deskcolor="#d1d1d1"
     inkscape:zoom="16.74"
     inkscape:cx="24.970131"
     inkscape:cy="25"
     inkscape:window-width="1920"
     inkscape:window-height="1051"
     inkscape:window-x="-9"
     inkscape:window-y="-9"
     inkscape:window-maximized="1"
     inkscape:current-layer="svg1" />
  <path
     d="m 36,12 v 7 h 7 c 0,-3.867187 -3.132812,-7 -7,-7 z"
     id="path6"
     sodipodi:nodetypes="cccc"
     style="fill:#ffffff;fill-opacity:1" />
  <path
     d="M 8.15625,15.65625 V 34.375 H 12.375 v -6.4375 h 2 c 2.261719,0 4.085938,-0.589844 5.4375,-1.75 1.351563,-1.160156 2.03125,-2.683594 2.03125,-4.5625 0,-3.976562 -2.378906,-5.96875 -7.09375,-5.96875 z m 4.21875,3.25 h 1.65625 c 2.242188,0 3.375,0.953125 3.375,2.875 0,1.964844 -1.132812,2.9375 -3.375,2.9375 H 12.375 Z"
     style="fill:#ffffff;fill-opacity:1"
     id="path5"
     sodipodi:nodetypes="ccccssssccssscc" />
  <path
     d="m 32,6 v 9.0625 C 32.328125,15.015625 32.660156,15 33,15 v 7 h 7 c 0,3.867188 -3.132812,7 -7,7 -0.339844,0 -0.671875,-0.01563 -1,-0.0625 V 35 h 8 v 2 h -8 v 7 h 15 c 1.101563,0 2,-0.898437 2,-2 V 8 C 49,6.898438 48.101563,6 47,6 Z m 4,6 c 3.867188,0 7,3.132813 7,7 h -7 z"
     id="path4"
     sodipodi:nodetypes="cccccsccccccssssccccc"
     style="fill:#ff8a65;fill-opacity:1" />
  <path
     d="m 12.375,18.90625 v 5.8125 h 1.65625 c 2.242188,0 3.375,-0.972656 3.375,-2.9375 0,-1.921875 -1.132812,-2.875 -3.375,-2.875 z"
     id="path3"
     sodipodi:nodetypes="ccsssc"
     style="fill:#e64a19;fill-opacity:1" />
  <path
     d="m 29.03125,0.00976563 c -0.0719,-6.104e-5 -0.145508,0.0078125 -0.21875,0.02148437 l -28,5.3125 C 0.339844,5.433594 0,5.863281 0,6.34375 v 37.3125 c 0,0.480469 0.339844,0.910156 0.8125,1 l 28,5.3125 C 28.875,49.980469 28.9375,50 29,50 c 0.230469,0 0.445313,-0.07031 0.625,-0.21875 C 29.855469,49.589844 30,49.296875 30,49 V 1 C 30,0.703125 29.855469,0.410156 29.625,0.21875 29.452148,0.07519535 29.246948,0.00994874 29.03125,0.00976563 Z M 8.15625,15.65625 H 14.75 c 4.714844,0 7.09375,1.992188 7.09375,5.96875 0,1.878906 -0.679687,3.402344 -2.03125,4.5625 -1.351562,1.160156 -3.175781,1.75 -5.4375,1.75 h -2 V 34.375 H 8.15625 Z"
     style="fill:#e64a19;fill-opacity:1"
     id="path2" /></symbol>
<symbol id="icon-recycle_bin" viewBox="0 0 48 48"><path fill="#e3f2fd" d="M39.996,7l-4.011,31.875l-0.008,0.062V39v2c0,0.551-0.449,1-1,1H13c-0.551,0-1-0.449-1-1v-2v-0.062 l-0.008-0.061L8.032,7.005h31.958L39.996,7"/><path fill="#bbdefb" d="M38.862,8.005L34.993,38.75l-0.016,0.124V39v2H13v-2v-0.124l-0.015-0.123L9.16,8.005H38.862 M39.991,6.005H8.032c-0.618,0-1.09,0.53-0.998,1.12L11,39v2c0,1.105,0.895,2,2,2h21.977c1.105,0,2-0.895,2-2v-2l4.011-31.875 C41.081,6.536,40.608,6.005,39.991,6.005L39.991,6.005z"/><path fill="#78909c" d="M41.837 7.15l.152-1C42.08 5.545 41.612 5 41 5H7C6.388 5 5.92 5.545 6.011 6.15l.152 1C6.237 7.639 6.657 8 7.152 8h33.697C41.343 8 41.763 7.639 41.837 7.15zM34.977 43H13c-1.105 0-2-.895-2-2v-2h25.977v2C36.977 42.105 36.082 43 34.977 43z"/><path fill="#1e88e5" d="M24.74 29L26.49 32 26.49 26z"/><path fill="#1565c0" d="M30.238,29.381l1.555-3.151c0.312-0.633,0.268-1.384-0.117-1.975L30.354,22L27,24.18L30.238,29.381z"/><path fill="#1e88e5" d="M26.24 31l2.564-.018c.389.019.754-.189.936-.535l2.015-4.137c0 0-.547.697-2.118.697L26.115 27 26.24 31zM20 22.5L16.375 22.5 21.5 25.75z"/><path fill="#1565c0" d="M16.75,27l1.788,3.002c0.36,0.607,1.006,0.997,1.712,0.998H23v-4H16.75z"/><path fill="#1e88e5" d="M17.45 22.745l-1.26 2.158c-.229.316-.253.735-.063 1.076l2.365 3.947c0 0-.285-.839.573-2.155l1.804-2.946L17.45 22.745zM28 21.736L29.25 18.736 24 21.736z"/><path fill="#1565c0" d="M25.313,17H21.8c-0.706,0-1.359,0.388-1.719,0.995l-1.395,2.354l3.441,2.04L25.313,17z"/><path fill="#1e88e5" d="M27.394,17.588C27.219,17.24,26.89,17.009,26.5,17h-4.625c0,0,0.929,0.078,1.625,1.486l1.484,2.931 l3.53-1.885C28.515,19.532,27.646,18.089,27.394,17.588z"/></symbol>
<symbol id="icon-refresh" viewBox="0 0 48 48"><radialGradient id="ztVCLBPzVJNm3En8frPzGa" cx="28.283" cy="25.124" r="21.784" gradientUnits="userSpaceOnUse"><stop offset=".266" stop-color="#0071d4"/><stop offset=".535" stop-color="#006fd2"/><stop offset=".673" stop-color="#0068ca"/><stop offset=".782" stop-color="#005dbd"/><stop offset=".876" stop-color="#004daa"/><stop offset=".959" stop-color="#003891"/><stop offset="1" stop-color="#002b82"/></radialGradient><path fill="url(#ztVCLBPzVJNm3En8frPzGa)" d="M43,23c-0.552,0-3.448,0-4,0s-1,0.448-1,1c0,7.732-6.268,14-14,14s-14-6.268-14-14H4c0,11.046,8.954,20,20,20s20-8.954,20-20C44,23.448,43.552,23,43,23z"/><linearGradient id="ztVCLBPzVJNm3En8frPzGb" x1="27.551" x2="48.131" y1=".565" y2="39.256" gradientUnits="userSpaceOnUse"><stop offset="0" stop-color="#32bdef"/><stop offset="1" stop-color="#1ea2e4"/></linearGradient><path fill="url(#ztVCLBPzVJNm3En8frPzGb)" d="M33.88,3.384l-5.28,10.387c-0.355,0.699,0.312,1.478,1.057,1.235l7.482-2.439c0.656-0.214,1.014-0.919,0.8-1.575L35.501,3.51C35.258,2.765,34.235,2.685,33.88,3.384z"/><linearGradient id="ztVCLBPzVJNm3En8frPzGc" x1="13.378" x2="32.773" y1="7.992" y2="44.454" gradientUnits="userSpaceOnUse"><stop offset="0" stop-color="#32bdef"/><stop offset="1" stop-color="#1ea2e4"/></linearGradient><path fill="url(#ztVCLBPzVJNm3En8frPzGc)" d="M10,24c0-7.732,6.268-14,14-14c2.251,0,4.371,0.544,6.256,1.489l2.681-5.362C30.245,4.778,27.216,4,24,4C12.954,4,4,12.954,4,24c0,11.046,8.954,20,20,20C19.179,43.252,10,38.89,10,24z"/></symbol>
<symbol id="icon-search" viewBox="0 0 48 48"><path fill="#199be2" d="M35.983,32.448l-3.536,3.536l7.87,7.87c0.195,0.195,0.512,0.195,0.707,0l2.828-2.828c0.195-0.195,0.195-0.512,0-0.707L35.983,32.448z"/><radialGradient id="KGt2acGa95QyN2j07oBX6a" cx="20.024" cy="20.096" r="19.604" gradientUnits="userSpaceOnUse"><stop offset=".693" stop-color="#006185"/><stop offset=".921" stop-color="#35c1f1"/></radialGradient><polygon fill="url(#KGt2acGa95QyN2j07oBX6a)" points="31.601,28.065 28.065,31.601 32.448,35.983 35.983,32.448"/><linearGradient id="KGt2acGa95QyN2j07oBX6b" x1="8.911" x2="31.339" y1="8.911" y2="31.339" gradientUnits="userSpaceOnUse"><stop offset="0" stop-color="#a3ffff"/><stop offset=".223" stop-color="#9dfbff"/><stop offset=".53" stop-color="#8bf1ff"/><stop offset=".885" stop-color="#6ee0ff"/><stop offset="1" stop-color="#63daff"/></linearGradient><circle cx="20" cy="20" r="16" fill="url(#KGt2acGa95QyN2j07oBX6b)"/></symbol>
<symbol id="icon-start_menu" viewBox="0 0 26 26"><path d="M2 0C1.476563 0 0.941406 0.183594 0.5625 0.5625C0.183594 0.941406 0 1.476563 0 2L0 20L2 20L2 2L13 2L13 20L21 20L21 2C21 1.476563 20.816406 0.941406 20.4375 0.5625C20.058594 0.183594 19.523438 0 19 0 Z M 4 4L4 6L11 6L11 4 Z M 4 8L4 10L11 10L11 8 Z M 15 15L19 15L19 17L15 17 Z M 1 21C0.398438 21 0 21.398438 0 22L0 25C0 25.601563 0.398438 26 1 26L25 26C25.601563 26 26 25.601563 26 25L26 22C26 21.398438 25.601563 21 25 21 Z M 2.5 22C3.300781 22 4 22.699219 4 23.5C4 24.300781 3.300781 25 2.5 25C1.699219 25 1 24.300781 1 23.5C1 22.699219 1.699219 22 2.5 22Z"/></symbol>
<symbol id="icon-to_do" viewBox="0 0 26 26"><path d="M7.875 0C7.617188 0.0351563 7.378906 0.167969 7.21875 0.375L3.8125 4.65625L1.5625 3.15625C1.097656 2.84375 0.46875 2.972656 0.15625 3.4375C-0.15625 3.902344 -0.0273438 4.53125 0.4375 4.84375L3.4375 6.84375C3.875 7.132813 4.460938 7.039063 4.78125 6.625L8.78125 1.625C9.042969 1.308594 9.082031 0.863281 8.882813 0.503906C8.679688 0.144531 8.28125 -0.0546875 7.875 0 Z M 12 3L12 5L26 5L26 3 Z M 7.875 9C7.617188 9.035156 7.378906 9.167969 7.21875 9.375L3.8125 13.65625L1.5625 12.15625C1.097656 11.84375 0.46875 11.972656 0.15625 12.4375C-0.15625 12.902344 -0.0273438 13.53125 0.4375 13.84375L3.4375 15.84375C3.875 16.132813 4.460938 16.039063 4.78125 15.625L8.78125 10.625C9.042969 10.308594 9.082031 9.863281 8.882813 9.503906C8.679688 9.144531 8.28125 8.945313 7.875 9 Z M 12 12L12 14L26 14L26 12 Z M 7.875 18C7.617188 18.035156 7.378906 18.167969 7.21875 18.375L3.8125 22.65625L1.5625 21.15625C1.097656 20.84375 0.46875 20.972656 0.15625 21.4375C-0.15625 21.902344 -0.0273438 22.53125 0.4375 22.84375L3.4375 24.84375C3.875 25.132813 4.460938 25.039063 4.78125 24.625L8.78125 19.625C9.042969 19.308594 9.082031 18.863281 8.882813 18.503906C8.679688 18.144531 8.28125 17.945313 7.875 18 Z M 12 21L12 23L26 23L26 21Z"/></symbol>
<symbol id="icon-txt" viewBox="0 0 48 48"><path fill="#50e6ff" d="M39,16v25c0,1.105-0.895,2-2,2H11c-1.105,0-2-0.895-2-2V7c0-1.105,0.895-2,2-2h17L39,16z"/><linearGradient id="wPoVdSo2M_qKZ6mufucFra" x1="28.529" x2="33.6" y1="510.528" y2="515.6" gradientTransform="matrix(1 0 0 -1 0 526)" gradientUnits="userSpaceOnUse"><stop offset="0" stop-color="#3079d6"/><stop offset="1" stop-color="#297cd2"/></linearGradient><path fill="url(#wPoVdSo2M_qKZ6mufucFra)" d="M28,5v9c0,1.105,0.895,2,2,2h9L28,5z"/><path fill="#057093" d="M33.5,24h-15c-0.276,0-0.5-0.224-0.5-0.5v-1c0-0.276,0.224-0.5,0.5-0.5h15 c0.276,0,0.5,0.224,0.5,0.5v1C34,23.776,33.776,24,33.5,24z"/><path fill="#057093" d="M25.5,16h-11c-0.276,0-0.5-0.224-0.5-0.5v-3c0-0.276,0.224-0.5,0.5-0.5h11 c0.276,0,0.5,0.224,0.5,0.5v3C26,15.776,25.776,16,25.5,16z"/><path fill="#057093" d="M15.5,24h-1c-0.276,0-0.5-0.224-0.5-0.5v-1c0-0.276,0.224-0.5,0.5-0.5h1c0.276,0,0.5,0.224,0.5,0.5 v1C16,23.776,15.776,24,15.5,24z"/><path fill="#057093" d="M31.5,28h-13c-0.276,0-0.5-0.224-0.5-0.5v-1c0-0.276,0.224-0.5,0.5-0.5h13 c0.276,0,0.5,0.224,0.5,0.5v1C32,27.776,31.776,28,31.5,28z"/><path fill="#057093" d="M15.5,28h-1c-0.276,0-0.5-0.224-0.5-0.5v-1c0-0.276,0.224-0.5,0.5-0.5h1c0.276,0,0.5,0.224,0.5,0.5 v1C16,27.776,15.776,28,15.5,28z"/><path fill="#057093" d="M33.5,32h-15c-0.276,0-0.5-0.224-0.5-0.5v-1c0-0.276,0.224-0.5,0.5-0.5h15 c0.276,0,0.5,0.224,0.5,0.5v1C34,31.776,33.776,32,33.5,32z"/><path fill="#057093" d="M15.5,32h-1c-0.276,0-0.5-0.224-0.5-0.5v-1c0-0.276,0.224-0.5,0.5-0.5h1c0.276,0,0.5,0.224,0.5,0.5 v1C16,31.776,15.776,32,15.5,32z"/><path fill="#057093" d="M31.5,36h-13c-0.276,0-0.5-0.224-0.5-0.5v-1c0-0.276,0.224-0.5,0.5-0.5h13 c0.276,0,0.5,0.224,0.5,0.5v1C32,35.776,31.776,36,31.5,36z"/><path fill="#057093" d="M15.5,36h-1c-0.276,0-0.5-0.224-0.5-0.5v-1c0-0.276,0.224-0.5,0.5-0.5h1c0.276,0,0.5,0.224,0.5,0.5 v1C16,35.776,15.776,36,15.5,36z"/></symbol>
<symbol id="icon-user" viewBox="0 0 48 48"><radialGradient id="A7gfmRnQJ4TuM2hgrd0Tra" cx="11.177" cy="8.393" r="40.312" gradientUnits="userSpaceOnUse"><stop offset="0" stop-color="#0370c8"/><stop offset=".484" stop-color="#036fc5"/><stop offset=".775" stop-color="#036abd"/><stop offset="1" stop-color="#0362b0"/></radialGradient><path fill="url(#A7gfmRnQJ4TuM2hgrd0Tra)" d="M44,24c0,11.045-8.955,20-20,20S4,35.045,4,24S12.955,4,24,4S44,12.955,44,24z"/><radialGradient id="A7gfmRnQJ4TuM2hgrd0Trb" cx="24" cy="44.108" r="16.14" gradientUnits="userSpaceOnUse"><stop offset="0"/><stop offset="1" stop-opacity="0"/></radialGradient><path fill="url(#A7gfmRnQJ4TuM2hgrd0Trb)" d="M24,44c5.795,0,10.998-2.48,14.651-6.418C36.177,31.943,30.552,28,24,28s-12.177,3.943-14.651,9.582C13.002,41.52,18.205,44,24,44z"/><radialGradient id="A7gfmRnQJ4TuM2hgrd0Trc" cx="24" cy="20" r="9.5" gradientUnits="userSpaceOnUse"><stop offset="0"/><stop offset="1" stop-opacity="0"/></radialGradient><circle cx="24" cy="20" r="9.5" fill="url(#A7gfmRnQJ4TuM2hgrd0Trc)"/><linearGradient id="A7gfmRnQJ4TuM2hgrd0Trd" x1="18.573" x2="29.735" y1="13.573" y2="24.735" gradientUnits="userSpaceOnUse"><stop offset="0" stop-color="#75daff"/><stop offset="1" stop-color="#1ea2e4"/></linearGradient><circle cx="24" cy="19" r="8" fill="url(#A7gfmRnQJ4TuM2hgrd0Trd)"/><linearGradient id="A7gfmRnQJ4TuM2hgrd0Tre" x1="17.007" x2="30.888" y1="31.21" y2="45.091" gradientUnits="userSpaceOnUse"><stop offset="0" stop-color="#75daff"/><stop offset="1" stop-color="#1ea2e4"/></linearGradient><path fill="url(#A7gfmRnQJ4TuM2hgrd0Tre)" d="M24,44c5.015,0,9.587-1.859,13.098-4.909C35.107,33.784,30.002,30,24,30s-11.107,3.784-13.098,9.091C14.413,42.141,18.985,44,24,44z"/></symbol>
<symbol id="icon-video" viewBox="0 0 48 48"><polygon fill="#0e6f38" points="44.584,13.091 34,19 34,24 46,24 46,14"/><linearGradient id="eZSX6JF6VB3E4h5QjkqGPa" x1="16.243" x2="19.966" y1="10.958" y2="38.592" gradientUnits="userSpaceOnUse"><stop offset="0" stop-color="#21ad64"/><stop offset="1" stop-color="#149753"/></linearGradient><path fill="url(#eZSX6JF6VB3E4h5QjkqGPa)" d="M32,38H4c-1.105,0-2-0.895-2-2V12c0-1.105,0.895-2,2-2h28c1.105,0,2,0.895,2,2v24C34,37.105,33.105,38,32,38z"/><circle cx="45" cy="14" r="1" fill="#0e6f38"/><polygon fill="#0e6f38" points="44.584,34.909 34,29 34,24 46,24 46,34"/><circle cx="45" cy="34" r="1" fill="#0e6f38"/></symbol>
<symbol id="icon-volume" viewBox="0 0 26 26"><path d="M12.03125 2.0625C11.710938 2.066406 11.355469 2.207031 11.03125 2.53125L4.4375 9L1 9C0.449219 9 0 9.449219 0 10L0 16C0 16.550781 0.449219 17 1 17L4.4375 17L11 23.4375C12 24.4375 13 23.925781 13 22.5625L13 3.28125C13 2.488281 12.566406 2.058594 12.03125 2.0625 Z M 19.28125 3.0625C18.84375 3.136719 18.507813 3.492188 18.457031 3.933594C18.410156 4.375 18.652344 4.796875 19.0625 4.96875C22 6.449219 24 9.476563 24 13C24 16.523438 22 19.550781 19.0625 21.03125C18.695313 21.15625 18.4375 21.484375 18.394531 21.867188C18.351563 22.253906 18.535156 22.628906 18.867188 22.832031C19.195313 23.03125 19.613281 23.023438 19.9375 22.8125C23.527344 21 26 17.289063 26 13C26 8.710938 23.527344 5 19.9375 3.1875C19.765625 3.089844 19.570313 3.046875 19.375 3.0625C19.34375 3.0625 19.3125 3.0625 19.28125 3.0625 Z M 17.125 5.8125C16.679688 5.867188 16.324219 6.214844 16.261719 6.660156C16.195313 7.101563 16.433594 7.535156 16.84375 7.71875C18.722656 8.734375 20 10.707031 20 13C20 15.285156 18.742188 17.265625 16.875 18.28125C16.515625 18.421875 16.265625 18.753906 16.238281 19.140625C16.210938 19.527344 16.40625 19.894531 16.742188 20.085938C17.082031 20.273438 17.496094 20.253906 17.8125 20.03125C20.308594 18.675781 22 16.03125 22 13C22 9.960938 20.289063 7.320313 17.78125 5.96875C17.640625 5.878906 17.480469 5.824219 17.3125 5.8125C17.25 5.804688 17.1875 5.804688 17.125 5.8125 Z M 14.53125 9.09375C14.054688 9.171875 13.699219 9.582031 13.691406 10.066406C13.683594 10.550781 14.023438 10.96875 14.5 11.0625C15.355469 11.285156 16 12.0625 16 13C16 13.9375 15.355469 14.714844 14.5 14.9375C13.964844 15.074219 13.644531 15.621094 13.78125 16.15625C13.917969 16.691406 14.464844 17.011719 15 16.875C16.722656 16.425781 18 14.851563 18 13C18 11.148438 16.722656 9.574219 15 9.125C14.878906 9.089844 14.75 9.082031 14.625 9.09375C14.59375 9.09375 14.5625 9.09375 14.53125 9.09375Z"/></symbol>
<symbol id="icon-vue" viewBox="0 0 256 198"><path fill="#41B883" d="M204.8 0H256L128 220.8L0 0h97.92L128 51.2L157.44 0h47.36Z"></path><path fill="#41B883" d="m0 0l128 220.8L256 0h-51.2L128 132.48L50.56 0H0Z"></path><path fill="#35495E" d="M50.56 0L128 133.12L204.8 0h-47.36L128 51.2L97.92 0H50.56Z"></path></symbol>
<symbol id="icon-windows8" viewBox="0 0 26 26"><path d="M26 0L12 1.96875L12 12L26 12 Z M 10 2.25L0 3.65625L0 12L10 12 Z M 0 14L0 22.40625L10 23.78125L10 14 Z M 12 14L12 24.0625L26 25.96875L26 14Z"/></symbol>
<symbol id="icon-word" viewBox="0 0 50 50"><?xml version="1.0" encoding="UTF-8" standalone="no"?>

  <defs
     id="defs1" />
  <sodipodi:namedview
     id="namedview1"
     pagecolor="#ffffff"
     bordercolor="#000000"
     borderopacity="0.25"
     inkscape:showpageshadow="2"
     inkscape:pageopacity="0.0"
     inkscape:pagecheckerboard="0"
     inkscape:deskcolor="#d1d1d1"
     inkscape:zoom="16.74"
     inkscape:cx="24.970131"
     inkscape:cy="20.818399"
     inkscape:window-width="1920"
     inkscape:window-height="1051"
     inkscape:window-x="-9"
     inkscape:window-y="-9"
     inkscape:window-maximized="1"
     inkscape:current-layer="svg1" />
  <path
     d="m 4.625,15.65625 3.8125,18.6875 h 3.75 L 14.65625,22.375 C 14.769531,21.824219 14.875,21.101563 14.9375,20.25 h 0.03125 c 0.02734,0.773438 0.08984,1.5 0.21875,2.125 l 2.40625,11.96875 h 3.625 L 25.0625,15.65625 H 21.75 l -2,12.46875 c -0.117187,0.703125 -0.19141,1.40625 -0.21875,2.09375 H 19.5 c -0.06641,-0.878906 -0.13281,-1.539062 -0.21875,-2 l -2.375,-12.5625 h -3.5 l -2.625,12.40625 c -0.167969,0.792969 -0.28516,1.519531 -0.3125,2.1875 h -0.0625 c -0.03906,-0.894531 -0.09766,-1.628906 -0.1875,-2.15625 L 8.1875,15.65625 Z"
     id="path4"
     sodipodi:nodetypes="ccccccccccccccccccccccc"
     style="fill:#ffffff" />
  <path
     d="m 32,6 v 7 h 12 v 2 H 32 v 5 h 12 v 2 H 32 v 5 h 12 v 2 H 32 v 6 h 12 v 2 H 32 v 7 h 15 c 1.101563,0 2,-0.898437 2,-2 V 8 C 49,6.898438 48.101563,6 47,6 Z"
     id="path3"
     sodipodi:nodetypes="ccccccccccccccccccssssc"
     style="fill:#2196f3;fill-opacity:1" />
  <path
     d="M 29.03125,0.00976563 C 28.95935,0.00970459 28.885742,0.01757813 28.8125,0.03125 l -28,5.3125 C 0.339844,5.433594 0,5.863281 0,6.34375 v 37.3125 c 0,0.480469 0.339844,0.910156 0.8125,1 l 28,5.3125 C 28.875,49.980469 28.9375,50 29,50 29.230469,50 29.445313,49.92969 29.625,49.78125 29.855469,49.589844 30,49.296875 30,49 V 1 C 30,0.703125 29.855469,0.410156 29.625,0.21875 29.452148,0.07519535 29.246948,0.00994874 29.03125,0.00976563 Z M 4.625,15.65625 h 3.5625 l 2.03125,12.4375 c 0.08984,0.527344 0.148438,1.261719 0.1875,2.15625 h 0.0625 c 0.02734,-0.667969 0.144531,-1.394531 0.3125,-2.1875 l 2.625,-12.40625 h 3.5 l 2.375,12.5625 c 0.08594,0.460938 0.152344,1.121094 0.21875,2 h 0.03125 C 19.55859,29.53125 19.632813,28.828125 19.75,28.125 l 2,-12.46875 h 3.3125 l -3.84375,18.6875 h -3.625 L 15.1875,22.375 C 15.058594,21.75 14.996094,21.023438 14.96875,20.25 H 14.9375 c -0.0625,0.851563 -0.167969,1.574219 -0.28125,2.125 L 12.1875,34.34375 h -3.75 z"
     id="path2"
     sodipodi:nodetypes="sccssccscssssccccccccccccccccccccccc"
     style="fill:#0d47a1;fill-opacity:1" /></symbol>
<symbol id="icon-zip" viewBox="0 0 48 48"><linearGradient id="bwc2gTApiQRdrgZvACv8Ha" x1="24" x2="24" y1="6.708" y2="14.977" gradientUnits="userSpaceOnUse"><stop offset="0" stop-color="#eba600"/><stop offset="1" stop-color="#c28200"/></linearGradient><path fill="url(#bwc2gTApiQRdrgZvACv8Ha)" d="M24.414,10.414l-2.536-2.536C21.316,7.316,20.553,7,19.757,7L5,7C3.895,7,3,7.895,3,9l0,30c0,1.105,0.895,2,2,2l38,0c1.105,0,2-0.895,2-2V13c0-1.105-0.895-2-2-2l-17.172,0C25.298,11,24.789,10.789,24.414,10.414z"/><linearGradient id="bwc2gTApiQRdrgZvACv8Hb" x1="24" x2="24" y1="10.854" y2="40.983" gradientUnits="userSpaceOnUse"><stop offset="0" stop-color="#ffd869"/><stop offset="1" stop-color="#fec52b"/></linearGradient><path fill="url(#bwc2gTApiQRdrgZvACv8Hb)" d="M21.586,14.414l3.268-3.268C24.947,11.053,25.074,11,25.207,11H43c1.105,0,2,0.895,2,2v26c0,1.105-0.895,2-2,2H5c-1.105,0-2-0.895-2-2V15.5C3,15.224,3.224,15,3.5,15h16.672C20.702,15,21.211,14.789,21.586,14.414z"/><path fill="#c28200" d="M36,11.5v1c0,0.276-0.224,0.5-0.5,0.5H34c-0.552,0-1-0.448-1-1c0-0.552,0.448-1,1-1h1.5C35.776,11,36,11.224,36,11.5z M34,14c0-0.552-0.448-1-1-1h-1.5c-0.276,0-0.5,0.224-0.5,0.5v1c0,0.276,0.224,0.5,0.5,0.5H33C33.552,15,34,14.552,34,14z M33,16c0,0.552,0.448,1,1,1h1.5c0.276,0,0.5-0.224,0.5-0.5v-1c0-0.276-0.224-0.5-0.5-0.5H34C33.448,15,33,15.448,33,16z M34,18c0-0.552-0.448-1-1-1h-1.5c-0.276,0-0.5,0.224-0.5,0.5v1c0,0.276,0.224,0.5,0.5,0.5H33C33.552,19,34,18.552,34,18z M33,20c0,0.552,0.448,1,1,1h1.5c0.276,0,0.5-0.224,0.5-0.5v-1c0-0.276-0.224-0.5-0.5-0.5H34C33.448,19,33,19.448,33,20z M33,24c0,0.552,0.448,1,1,1h1.5c0.276,0,0.5-0.224,0.5-0.5v-1c0-0.276-0.224-0.5-0.5-0.5H34C33.448,23,33,23.448,33,24z M34,22c0-0.552-0.448-1-1-1h-1.5c-0.276,0-0.5,0.224-0.5,0.5v1c0,0.276,0.224,0.5,0.5,0.5H33C33.552,23,34,22.552,34,22z"/><linearGradient id="bwc2gTApiQRdrgZvACv8Hc" x1="33.5" x2="33.5" y1="25.944" y2="37.581" gradientUnits="userSpaceOnUse"><stop offset="0" stop-color="#4b4b4b"/><stop offset="1" stop-color="#3b3b3b"/></linearGradient><path fill="url(#bwc2gTApiQRdrgZvACv8Hc)" d="M36.128,26.848C36.055,26.358,35.635,26,35.139,26h-3.279c-0.495,0-0.915,0.358-0.988,0.848C30.603,28.65,30,32.761,30,33.5c0,1.933,1.567,3.5,3.5,3.5s3.5-1.567,3.5-3.5C37,32.761,36.397,28.65,36.128,26.848z M33.5,35c-0.828,0-1.5-0.672-1.5-1.5s0.672-1.5,1.5-1.5s1.5,0.672,1.5,1.5S34.328,35,33.5,35z"/></symbol>
</defs></svg>