<svg xmlns="http://www.w3.org/2000/svg" xmlns:xlink="http://www.w3.org/1999/xlink" viewBox="0 0 48 48" fill="#5B5B5B">
  <path d="M11.5 6C8.462 6 6 8.462 6 11.5L6 24.859375C6 26.197375 6.66825 27.4465 7.78125 28.1875L9 29L9 11.5C9 10.119 10.119 9 11.5 9L29 9L28.1875 7.78125C27.4455 6.66825 26.196375 6 24.859375 6L11.5 6 z M 16.5 11C13.462 11 11 13.462 11 16.5L11 31.859375C11 33.197375 11.66825 34.4465 12.78125 35.1875L14 36L14 16.5C14 15.119 15.119 14 16.5 14L36 14L35.1875 12.78125C34.4455 11.66825 33.196375 11 31.859375 11L16.5 11 z M 21.5 16C18.467 16 16 18.467 16 21.5L16 36.5C16 39.533 18.467 42 21.5 42L33.113281 42L30.113281 39L21.5 39C20.122 39 19 37.878 19 36.5L19 21.5C19 20.122 20.122 19 21.5 19L36.5 19C37.878 19 39 20.122 39 21.5L39 30.113281L42 33.113281L42 21.5C42 18.467 39.533 16 36.5 16L21.5 16 z M 28.554688 27.001953 A 1.50015 1.50015 0 0 0 27.041016 28.851562L28.519531 34.972656 A 1.50015 1.50015 0 0 0 28.916016 35.679688L38.833984 45.599609C40.689337 47.454962 43.744257 47.454962 45.599609 45.599609C47.454962 43.744257 47.454962 40.689337 45.599609 38.833984L35.679688 28.916016 A 1.50015 1.50015 0 0 0 34.972656 28.519531L28.851562 27.041016 A 1.50015 1.50015 0 0 0 28.554688 27.001953 z M 30.535156 30.535156L33.857422 31.335938L43.476562 40.955078C44.18521 41.663726 44.18521 42.767916 43.476562 43.476562C42.767916 44.18521 41.663726 44.18521 40.955078 43.476562L31.335938 33.857422L30.535156 30.535156 z" fill="#5B5B5B" />
</svg>