<svg xmlns="http://www.w3.org/2000/svg" xmlns:xlink="http://www.w3.org/1999/xlink" viewBox="0 0 26 26"><path d="M2 0C1.476563 0 0.941406 0.183594 0.5625 0.5625C0.183594 0.941406 0 1.476563 0 2L0 20L2 20L2 2L13 2L13 20L21 20L21 2C21 1.476563 20.816406 0.941406 20.4375 0.5625C20.058594 0.183594 19.523438 0 19 0 Z M 4 4L4 6L11 6L11 4 Z M 4 8L4 10L11 10L11 8 Z M 15 15L19 15L19 17L15 17 Z M 1 21C0.398438 21 0 21.398438 0 22L0 25C0 25.601563 0.398438 26 1 26L25 26C25.601563 26 26 25.601563 26 25L26 22C26 21.398438 25.601563 21 25 21 Z M 2.5 22C3.300781 22 4 22.699219 4 23.5C4 24.300781 3.300781 25 2.5 25C1.699219 25 1 24.300781 1 23.5C1 22.699219 1.699219 22 2.5 22Z"/></svg>