<svg xmlns="http://www.w3.org/2000/svg" xmlns:xlink="http://www.w3.org/1999/xlink" width="48" height="48" viewBox="0 0 48 48"><path fill="#C5E1A5" d="M42,9c0,0-15,9-29,6v27c14,2,29-6,29-6V9z"/><path fill="#8BC34A" d="M20,11c-0.003-2.762-3.136-5-7-5s-6.997,2.238-7,5l0,0v26.006h14V11L20,11z"/><path fill="#558B2F" d="M13 32.002A7 5.004 0 1 0 13 42.01 7 5.004 0 1 0 13 32.002zM13 8A1 1 0 1 0 13 10 1 1 0 1 0 13 8zM13 13A1 1 0 1 0 13 15 1 1 0 1 0 13 13zM13 18A1 1 0 1 0 13 20 1 1 0 1 0 13 18zM13 23A1 1 0 1 0 13 25 1 1 0 1 0 13 23zM13 28A1 1 0 1 0 13 30 1 1 0 1 0 13 28zM17 11A1 1 0 1 0 17 13 1 1 0 1 0 17 11zM17 16A1 1 0 1 0 17 18 1 1 0 1 0 17 16zM17 21A1 1 0 1 0 17 23 1 1 0 1 0 17 21zM17 26A1 1 0 1 0 17 28 1 1 0 1 0 17 26zM9 11A1 1 0 1 0 9 13 1 1 0 1 0 9 11zM9 16A1 1 0 1 0 9 18 1 1 0 1 0 9 16zM9 21A1 1 0 1 0 9 23 1 1 0 1 0 9 21zM9 26A1 1 0 1 0 9 28 1 1 0 1 0 9 26z"/><path fill="#33691E" d="M13 34.861A3 2.145 0 1 0 13 39.151A3 2.145 0 1 0 13 34.861Z"/></svg>